<?xml version="1.0" encoding="utf-8"?>
<!-- Generator: Adobe Illustrator 16.0.0, SVG Export Plug-In . SVG Version: 6.00 Build 0)  -->
<!DOCTYPE svg PUBLIC "-//W3C//DTD SVG 1.1//EN" "http://www.w3.org/Graphics/SVG/1.1/DTD/svg11.dtd">
<svg version="1.1" id="Layer_1" xmlns="http://www.w3.org/2000/svg" xmlns:xlink="http://www.w3.org/1999/xlink" x="0px" y="0px"
	 width="400px" height="400px" viewBox="0 0 400 400" enable-background="new 0 0 400 400" xml:space="preserve">
<path fill="#FFFFFF" d="M136.9,36.6c0,0,59.8-15,123.4,0v149L248.4,197.5l15.899,15.9V282.1c0,0-2.5,0.101-42,0.101v-61.7h-44.9V334
	h44.9v-8.9h42V364.4c0,0-75,12.8-127.4,0v-243l40.8,0.3v56.2H220.1V69h-42.3v9.8l-40.9-0.2V36.6z"/>
<polyline fill="#FFFFFF" points="123.3,118.7 123.3,285.3 133.3,285.3 133.3,322.1 82.6,322.1 82.6,80.5 216.4,80.5 216.4,118.5 "/>
<polygon fill="#FFFFFF" points="326.8,118.3 326.8,80.6 272.9,80.6 263.9,80.6 263.9,118.4 273.6,118.4 273.7,127.6 273.7,285.2 
	263.8,285.3 218.5,285.3 218.5,275.833 181.3,275.833 181.3,285.3 181.3,322.1 218.5,322.1 264.7,322.1 317.4,322.1 317,301.9 
	317.1,118.3 "/>
</svg>
