<?xml version="1.0" standalone="no"?>
<!DOCTYPE svg PUBLIC "-//W3C//DTD SVG 20010904//EN"
 "http://www.w3.org/TR/2001/REC-SVG-20010904/DTD/svg10.dtd">
<svg version="1.0" xmlns="http://www.w3.org/2000/svg"
 width="261.000000pt" height="261.000000pt" viewBox="0 0 261.000000 261.000000"
 preserveAspectRatio="xMidYMid meet">
<metadata>
Created by potrace 1.11, written by Peter Selinger 2001-2013
</metadata>
<g transform="translate(0.000000,261.000000) scale(0.100000,-0.100000)"
fill="#000000" stroke="none">
<path d="M1120 2603 c-14 -2 -78 -11 -143 -20 -68 -9 -121 -22 -123 -28 -3 -7
-6 -80 -7 -164 l-2 -151 25 -1 c14 -1 85 -2 158 -3 144 -1 139 -4 133 57 -2
16 11 17 158 17 160 0 161 0 162 -22 1 -35 1 -760 0 -785 -1 -23 -2 -23 -159
-23 l-159 0 0 210 c0 116 -2 212 -4 215 -7 6 -300 8 -306 1 -3 -3 -6 -420 -5
-927 0 -712 3 -923 12 -929 15 -9 128 -27 225 -36 124 -11 393 -6 535 11 19 2
61 7 93 10 32 4 70 10 84 14 l26 7 0 143 c-1 78 -4 146 -8 149 -4 4 -75 7
-158 7 l-152 0 -5 -35 -5 -35 -165 0 -165 0 -3 433 -2 432 27 1 c34 1 283 1
301 0 9 -1 12 -55 12 -236 l0 -235 160 0 c145 0 160 2 161 18 0 9 1 128 1 264
l1 247 -39 39 c-86 86 -83 77 -34 127 l43 44 -1 564 c0 311 -2 570 -6 575 -3
5 -43 15 -88 22 -46 7 -94 15 -108 17 -32 6 -437 11 -470 6z"/>
<path d="M435 2220 c-2 -3 -4 -418 -4 -922 1 -692 3 -917 12 -920 7 -2 95 -4
196 -4 l184 1 0 120 c-1 182 2 168 -33 163 -17 -3 -34 0 -38 6 -11 18 -8 1258
3 1262 6 2 165 5 355 6 l345 3 1 145 1 145 -509 0 c-281 0 -511 -2 -513 -5z"/>
<path d="M1885 2222 l-70 -3 2 -127 c1 -70 2 -135 2 -145 1 -13 8 -18 24 -17
12 1 28 2 35 1 9 -1 12 -135 12 -636 l0 -635 -50 -1 c-65 0 -290 0 -336 0 -34
1 -35 2 -32 34 l3 32 -142 3 -142 3 -3 -143 c-2 -79 -2 -159 0 -178 l3 -35
519 0 519 0 0 774 c-1 570 2 776 11 781 6 4 22 5 36 2 28 -5 26 -15 25 167 0
62 -2 115 -5 118 -5 6 -309 9 -411 5z"/>
</g>
</svg>
